<svg width="292" height="54" viewBox="0 0 292 54" fill="none" xmlns="http://www.w3.org/2000/svg">
<path d="M0.227148 4.56C5.64048 4.18666 10.4005 4 14.5071 4C26.0805 4 31.8671 8.08333 31.8671 16.25C31.8671 20.03 30.8871 23.3433 28.9271 26.19C27.9005 27.73 26.3138 28.9667 24.1672 29.9C22.0205 30.7867 19.4305 31.23 16.3972 31.23H6.03715V53H0.227148V4.56ZM14.5771 4.7C11.8705 4.7 9.02382 4.86333 6.03715 5.19V30.53H16.3972C22.9772 30.25 26.2672 25.5367 26.2672 16.39C26.2672 12.6567 25.2872 9.78666 23.3271 7.78C21.3671 5.72666 18.4505 4.7 14.5771 4.7ZM53.4086 53.28C48.5086 53.28 44.5186 51.88 41.4386 49.08C38.3586 46.28 36.8186 41.9633 36.8186 36.13C36.8186 30.2967 38.4052 25.77 41.5786 22.55C44.7986 19.33 48.8586 17.72 53.7586 17.72C58.7052 17.72 62.7186 19.12 65.7986 21.92C68.8786 24.72 70.4186 29.0367 70.4186 34.87C70.4186 40.7033 68.8086 45.23 65.5886 48.45C62.4152 51.67 58.3552 53.28 53.4086 53.28ZM53.8986 18.28C50.3519 18.28 47.4119 19.8667 45.0786 23.04C42.7452 26.1667 41.5786 30.5533 41.5786 36.2C41.5786 41.8 42.6519 45.9533 44.7986 48.66C46.9452 51.3667 49.7919 52.72 53.3386 52.72C56.8852 52.72 59.8252 51.1567 62.1586 48.03C64.4919 44.8567 65.6586 40.47 65.6586 34.87C65.6586 29.2233 64.5852 25.0467 62.4386 22.34C60.2919 19.6333 57.4452 18.28 53.8986 18.28ZM84.8785 53C80.7718 53 78.1818 51.9267 77.1085 49.78C76.8751 49.3133 76.7585 48.8933 76.7585 48.52V0.569999H81.6585V48.03C81.6585 49.3833 81.9151 50.4333 82.4285 51.18C82.9885 51.88 83.5485 52.2533 84.1085 52.3L84.8785 52.44H87.0485V53H84.8785ZM119.869 53C116.696 53 114.526 52.3933 113.359 51.18C112.286 50.1533 111.749 49.2667 111.749 48.52V47.05C109.463 51.2033 105.799 53.28 100.759 53.28C94.8792 53.28 91.5425 50.62 90.7492 45.3C90.6558 44.74 90.6092 44.18 90.6092 43.62C90.6092 43.0133 90.7025 42.36 90.8892 41.66C91.0758 40.96 91.6125 40.19 92.4992 39.35C94.2725 37.67 98.1692 36.6433 104.189 36.27C105.683 36.13 107.059 36.06 108.319 36.06C109.579 36.06 110.723 36.1067 111.749 36.2V24.58C111.656 24.5333 111.656 24.3233 111.749 23.95C111.843 23.53 111.749 23.0167 111.469 22.41C111.236 21.7567 110.909 21.1267 110.489 20.52C110.069 19.9133 109.323 19.4 108.249 18.98C107.176 18.5133 105.776 18.28 104.049 18.28C102.323 18.28 100.293 18.6067 97.9592 19.26C95.6725 19.8667 93.9925 20.4733 92.9192 21.08L92.6392 20.59C96.7925 18.6767 101.016 17.72 105.309 17.72C110.116 17.72 113.289 18.5833 114.829 20.31C116.043 21.6633 116.649 23.0867 116.649 24.58V48.03C116.649 49.3833 116.906 50.4333 117.419 51.18C117.979 51.88 118.539 52.2533 119.099 52.3L119.869 52.44H122.039V53H119.869ZM101.879 52.72C104.353 52.72 106.569 51.88 108.529 50.2C110.536 48.4733 111.609 46.8167 111.749 45.23V36.76C110.489 36.6667 109.206 36.62 107.899 36.62C106.639 36.62 105.379 36.69 104.119 36.83C100.573 37.25 98.2625 38.0433 97.1892 39.21C96.1158 40.3767 95.5792 41.9867 95.5792 44.04C95.5792 44.4133 95.6025 44.8333 95.6492 45.3C96.0692 50.2467 98.1458 52.72 101.879 52.72ZM172.002 18.42L172.422 18C172.608 18.0933 172.842 18.3733 173.122 18.84C173.448 19.3067 173.635 19.7267 173.682 20.1C173.775 20.4733 173.822 20.8233 173.822 21.15C173.822 22.41 173.542 23.6933 172.982 25L160.242 53H159.542L149.462 25.91L137.142 53H136.442L123.422 18H128.322L139.032 46.98L149.112 25.07L146.522 18H151.422L162.132 46.98L172.282 25C172.842 24.02 173.122 22.8533 173.122 21.5C173.122 20.1467 172.748 19.12 172.002 18.42ZM194.297 53.28C189.397 53.28 185.407 51.88 182.327 49.08C179.247 46.28 177.707 41.9633 177.707 36.13C177.707 30.2967 179.294 25.77 182.467 22.55C185.687 19.33 189.747 17.72 194.647 17.72C199.594 17.72 203.607 19.12 206.687 21.92C209.767 24.72 211.307 29.0367 211.307 34.87C211.307 40.7033 209.697 45.23 206.477 48.45C203.304 51.67 199.244 53.28 194.297 53.28ZM194.787 18.28C191.241 18.28 188.301 19.8667 185.967 23.04C183.634 26.1667 182.467 30.5533 182.467 36.2C182.467 41.8 183.541 45.9533 185.687 48.66C187.834 51.3667 190.681 52.72 194.227 52.72C197.774 52.72 200.714 51.1567 203.047 48.03C205.381 44.8567 206.547 40.47 206.547 34.87C206.547 29.2233 205.474 25.0467 203.327 22.34C201.181 19.6333 198.334 18.28 194.787 18.28ZM228.88 21.01V19.54C226.78 20.38 224.867 22.0833 223.14 24.65C221.413 27.17 220.503 29.55 220.41 31.79V53H215.51V18H220.41V29.13C221.157 26.4233 222.58 23.88 224.68 21.5C226.78 19.0733 229.16 17.8133 231.82 17.72H232.1C233.033 17.72 233.803 18.0467 234.41 18.7C235.063 19.3067 235.39 20.0767 235.39 21.01C235.39 21.9433 235.063 22.7133 234.41 23.32C233.803 23.9267 233.033 24.23 232.1 24.23C231.167 24.23 230.397 23.9267 229.79 23.32C229.183 22.7133 228.88 21.9433 228.88 21.01ZM249.556 53C245.45 53 242.86 51.9267 241.786 49.78C241.553 49.3133 241.436 48.8933 241.436 48.52V0.569999H246.336V48.03C246.336 49.3833 246.593 50.4333 247.106 51.18C247.666 51.88 248.226 52.2533 248.786 52.3L249.556 52.44H251.726V53H249.556ZM255.637 36.76C255.637 30.6933 257.107 26.0033 260.047 22.69C262.987 19.3767 267.397 17.72 273.277 17.72C276.03 17.72 278.807 18.42 281.607 19.82V0.569999H286.507V48.03C286.507 49.3833 286.764 50.4333 287.277 51.18C287.837 51.88 288.397 52.2533 288.957 52.3L289.727 52.44H291.897V53H287.627C285.714 53 284.244 52.58 283.217 51.74C282.237 50.9 281.724 50.06 281.677 49.22L281.607 48.03V46.91C280.72 48.5433 279.25 49.99 277.197 51.25C275.144 52.51 272.717 53.14 269.917 53.14C260.397 52.9067 255.637 47.4467 255.637 36.76ZM269.987 52.58C273.114 52.58 275.797 51.74 278.037 50.06C280.277 48.38 281.467 46.7233 281.607 45.09V20.45C278.294 19.0033 275.447 18.28 273.067 18.28C268.914 18.28 265.787 19.9133 263.687 23.18C261.587 26.4 260.537 30.9267 260.537 36.76C260.537 47.3067 263.687 52.58 269.987 52.58Z" fill="white"/>
</svg>
