<svg width="93" height="50" viewBox="0 0 93 50" fill="none" xmlns="http://www.w3.org/2000/svg">
<path d="M0.271094 0.559998C5.68443 0.186664 10.4444 -3.33786e-06 14.5511 -3.33786e-06C26.1244 -3.33786e-06 31.9111 4.08333 31.9111 12.25C31.9111 16.03 30.9311 19.3433 28.9711 22.19C27.9444 23.73 26.3578 24.9667 24.2111 25.9C22.0644 26.7867 19.4744 27.23 16.4411 27.23H6.08109V49H0.271094V0.559998ZM14.6211 0.699996C11.9144 0.699996 9.06776 0.86333 6.08109 1.19V26.53H16.4411C23.0211 26.25 26.3111 21.5367 26.3111 12.39C26.3111 8.65666 25.3311 5.78666 23.3711 3.78C21.4111 1.72666 18.4944 0.699996 14.6211 0.699996ZM91.2197 -3.33786e-06C92.1064 0.886663 92.5497 2.03 92.5497 3.43C92.5497 4.59666 92.293 5.78666 91.7797 7L75.2597 49L74.4897 49.35L65.2497 20.02L53.8397 49L53.0697 49.35L37.5297 -3.33786e-06H43.4797L56.0097 41.44L64.8997 18.9L58.9497 -3.33786e-06H64.8997L77.4297 41.44L90.9397 7C91.453 5.83333 91.7097 4.62 91.7097 3.36C91.7097 2.1 91.3597 1.12 90.6597 0.42L91.2197 -3.33786e-06Z" fill="white"/>
</svg>
